<?xml version="1.0" encoding="UTF-8" standalone="no"?>
<svg xmlns:ffdec="https://www.free-decompiler.com/flash" xmlns:xlink="http://www.w3.org/1999/xlink" ffdec:objectType="shape" height="165.95px" width="500.95px" xmlns="http://www.w3.org/2000/svg">
  <g transform="matrix(1.0, 0.0, 0.0, 1.0, -1.2, -95.75)">
    <path d="M1.2 95.75 L108.55 98.75 142.4 129.2 142.15 141.0 126.75 140.85 127.75 141.25 126.8 181.45 130.45 180.4 159.25 180.2 159.2 184.6 157.45 186.05 156.4 186.05 156.2 198.25 295.65 196.2 295.3 156.3 299.8 155.95 289.35 155.9 289.3 151.35 311.95 148.45 372.75 148.95 372.85 154.25 360.55 155.0 364.8 155.0 365.8 201.8 502.15 229.1 M365.8 201.8 L365.85 204.5 502.15 233.75 M365.85 204.5 L366.0 210.6 502.15 244.35 M366.0 210.6 L366.0 211.0 315.6 212.1 309.75 210.05 309.25 210.05 304.2 208.25 299.6 206.45 295.7 205.1 295.7 202.05 156.05 204.45 156.0 207.15 154.35 209.75 128.5 210.25 128.65 204.9 126.2 204.95 124.8 261.7 M299.6 206.45 L299.2 163.9 303.8 163.9 308.75 163.85 309.25 163.85 309.75 210.05 M156.2 198.25 L156.15 199.15 295.65 197.1 295.65 196.2 M299.8 155.95 L314.9 154.75 360.55 155.0 M372.85 154.25 L312.0 153.95 289.35 155.9 M312.0 153.95 L311.95 148.45 M100.25 261.7 L103.2 160.75 105.1 160.85 114.65 161.3 122.1 161.7 119.55 261.7 M126.8 181.45 L126.8 181.55 157.55 181.3 159.25 180.2 M129.05 186.75 L154.8 186.5 155.35 186.05 130.1 186.35 129.05 186.75 128.8 198.6 128.75 199.55 128.65 204.9 M126.8 181.55 L126.65 186.35 130.1 186.35 M155.35 186.05 L156.4 186.05 M157.45 186.05 L157.55 181.3 M1.2 123.95 L91.25 125.4 126.75 140.85 M108.55 98.75 L107.95 120.55 142.15 141.0 M1.2 118.55 L107.95 120.55 M156.15 199.15 L156.05 204.45 M128.75 199.55 L126.35 199.6 126.2 204.95 M128.8 198.6 L126.35 198.65 126.35 199.6 M315.6 212.1 L314.9 154.75 M304.2 208.25 L303.8 163.9 M295.7 202.05 L295.65 197.1 M86.95 261.7 L91.25 125.4 M102.2 261.7 L105.1 160.85 M114.65 161.3 L111.95 261.7 M154.35 209.75 L154.8 186.5 M126.65 186.35 L126.35 198.65 M308.75 163.85 L309.25 210.05" ffdec:has-small-stroke="true" ffdec:original-stroke-width="0.05" fill="none" stroke="#000000" stroke-linecap="round" stroke-linejoin="round" stroke-width="1.0"/>
  </g>
</svg>
