<?xml version="1.0" encoding="UTF-8" standalone="no"?>
<svg xmlns:ffdec="https://www.free-decompiler.com/flash" xmlns:xlink="http://www.w3.org/1999/xlink" ffdec:objectType="shape" height="202.75px" width="500.95px" xmlns="http://www.w3.org/2000/svg">
  <g transform="matrix(1.0, 0.0, 0.0, 1.0, -1.2, -59.95)">
    <path d="M502.15 154.05 L500.85 174.1 500.6 178.4 502.15 178.25 M500.85 174.1 L500.5 178.4 500.6 178.4 M502.15 74.15 L458.15 73.15 452.2 182.95 476.55 180.5 482.0 91.1 482.9 91.1 502.15 91.15 M457.0 59.95 L374.15 67.95 373.9 76.5 456.4 71.15 457.0 59.95 502.15 61.65 M1.2 227.45 L44.3 174.2 73.55 172.4 73.6 173.3 385.65 153.7 388.35 77.25 395.1 76.85 373.9 76.5 M385.5 157.6 L71.35 178.55 71.25 179.3 71.8 190.25 388.1 166.2 385.2 165.45 385.5 157.6 385.65 153.7 M500.5 178.4 L477.45 180.75 476.55 180.5 M452.2 182.95 L388.1 166.2 M482.9 91.1 L477.45 180.75 M395.1 76.85 L458.15 73.15 M502.15 72.3 L456.4 71.15 M73.6 173.3 L71.35 178.55 M73.55 172.4 L32.25 262.7 M43.45 262.7 L71.8 190.25" ffdec:has-small-stroke="true" ffdec:original-stroke-width="0.05" fill="none" stroke="#000000" stroke-linecap="round" stroke-linejoin="round" stroke-width="1.0"/>
    <path d="M260.2 219.95 L260.2 219.75 260.8 221.7 260.6 221.4 260.35 220.75 260.2 219.95" fill="#000000" fill-rule="evenodd" stroke="none"/>
    <path d="M301.75 233.65 L302.0 234.6 302.0 235.5 301.35 237.7 300.3 238.9 297.8 239.95 288.35 241.35 286.3 231.6 296.7 230.15 298.35 230.3 299.9 231.15 300.65 231.75 301.4 232.9 301.75 233.65" fill="#000000" fill-rule="evenodd" stroke="none"/>
    <path d="M255.0 106.35 L235.3 129.8 234.85 130.25 233.8 131.0 214.9 142.6 222.65 148.25 222.85 148.45 223.05 148.6 239.85 165.95 249.3 179.65 265.05 188.4 265.3 188.65 265.55 188.8 266.5 189.8 266.6 190.15 266.9 190.5 266.95 190.8 277.65 197.5 279.05 198.8 279.85 200.5 279.85 200.9 288.35 241.35 283.1 242.15 281.35 242.0 279.8 241.15 279.1 240.55 278.3 239.35 277.95 238.6 277.75 237.65 277.75 237.55 274.65 222.7 264.85 223.95 263.3 223.75 262.85 223.5 262.75 223.5 261.9 223.0 261.35 222.5 261.05 222.05 260.85 221.9 260.2 219.75 260.2 219.4 260.15 219.3 258.75 197.05 242.85 187.0 242.65 186.8 242.2 186.55 241.5 185.5 241.85 186.05 241.55 185.75 241.35 185.3 241.2 185.1 241.2 185.05 241.0 184.85 240.95 184.45 240.8 184.05 240.8 184.0 231.8 171.2 217.15 156.4 205.1 147.8 174.85 158.5 173.3 158.75 173.15 158.8 153.15 159.6 150.15 158.7 148.75 157.05 148.2 154.85 148.7 152.6 150.1 150.95 150.95 150.55 153.05 149.9 172.55 148.6 181.05 145.6 179.5 144.3 177.5 141.65 175.65 137.8 174.95 134.75 174.85 130.7 175.65 127.05 176.4 125.2 177.9 122.6 179.15 121.05 181.7 118.6 182.45 118.1 185.8 116.3 188.75 115.45 192.95 115.05 196.15 115.5 200.25 116.85 203.05 118.55 205.45 120.8 207.95 124.25 209.2 127.15 210.0 131.3 209.9 134.0 255.6 105.05 255.0 106.35 M240.9 184.2 L241.0 184.35 240.95 184.25 240.9 184.2 M169.9 157.4 L169.5 157.0 169.9 157.4 M267.8 202.75 L268.45 214.65 272.9 214.15 270.9 204.7 267.8 202.75" fill="#000000" fill-rule="evenodd" stroke="none"/>
    <path d="M242.6 105.5 L242.75 105.4 242.65 105.55 242.6 105.5" fill="#565656" fill-rule="evenodd" stroke="none"/>
    <path d="M258.9 81.55 L262.5 85.7 246.6 104.7 246.45 104.8 245.65 104.45 243.8 104.4 242.6 105.5 239.5 102.05 255.5 83.3 258.9 81.55" fill="#565656" fill-rule="evenodd" stroke="none"/>
    <path d="M254.5 100.2 L254.85 100.6 255.65 102.05 255.7 104.9 255.6 105.05 227.7 122.75 242.75 105.4 243.8 104.4 245.65 104.45 246.45 104.8 246.6 104.7 251.75 98.6 252.0 98.6 253.5 99.35 254.5 100.2" fill="#000000" fill-rule="evenodd" stroke="none"/>
    <path d="M235.3 129.8 L236.15 128.75 236.1 129.0 235.3 129.8" fill="#000000" fill-rule="evenodd" stroke="none"/>
  </g>
</svg>
